<svg id="Ebene_1" data-name="Ebene 1" xmlns="http://www.w3.org/2000/svg" viewBox="0 0 967.88 756"><defs><style>.cls-1{fill:none;stroke:#bbc0c0;stroke-width:4px;opacity:0.8;isolation:isolate;}</style></defs>
<g id="Gruppe_289" data-name="Gruppe 289"><path id="Pfad_25" data-name="Pfad 25" class="cls-1" d="M971.25,501.07l-39.65-23a5,5,0,0,1-1.21-1l-28-30.67a5.12,5.12,0,0,1-1.15-4.81l10.32-37.43a5.12,5.12,0,0,0-5.86-6.39l-33,6a5.08,5.08,0,0,1-4.55-1.43l-40.85-41.14A5.11,5.11,0,0,1,826,359L809.46,298.9a5.17,5.17,0,0,1,0-2.59l8.89-35.77a3.86,3.86,0,0,1,.17-.55L826,239.76a5.5,5.5,0,0,1,.9-1.53L849.23,212a5.2,5.2,0,0,0,1.16-2.53l8.89-57.58a5.1,5.1,0,0,0-.1-2L843.9,88.29a5.06,5.06,0,0,0-1.42-2.46L786.11,31.62a5.12,5.12,0,0,0-1.89-1.15L716.42,7.28a5,5,0,0,0-2.66-.18L650.11,19.93a5.1,5.1,0,0,0-2.15,1L606.82,53.3a5.57,5.57,0,0,0-.51.46l-47.64,49.3a5.18,5.18,0,0,1-2.67,1.46L499,116a5.05,5.05,0,0,1-2.05,0L408.4,97.62a5.13,5.13,0,0,1-.87-.26L350.14,74.23a5.1,5.1,0,0,0-3.57-.09L281.66,96.35a5.11,5.11,0,0,0-3.47,4.84V114.3a5.14,5.14,0,0,1-1.24,3.35l-34.27,39.64a5.9,5.9,0,0,1-.5.5L202.84,192.3a5.1,5.1,0,0,1-3.37,1.27h-46.8a5.08,5.08,0,0,1-2.9-.91l-22.54-15.53a5.07,5.07,0,0,0-2.9-.9H96.18a5.09,5.09,0,0,1-3.51-1.4L52.63,137a5.12,5.12,0,0,0-8.05,6.08h0a5.12,5.12,0,0,1,.58,2.37v30.44a4.44,4.44,0,0,0,0,.63l5.13,41.36a5.12,5.12,0,0,0,.62,1.9l15.19,26.76a3.87,3.87,0,0,0,.46.68l26.9,33.55a5.19,5.19,0,0,1,.93,1.81l10,35.29a5,5,0,0,0,1,1.9L133,352.61a5.2,5.2,0,0,1,1.11,2.33l23.43,121.93a5.25,5.25,0,0,1,0,1.63l-6.27,48a5.12,5.12,0,0,1-1.67,3.16l-32.79,29.22-.4.4L51.25,631.54a5.15,5.15,0,0,1-1.88,1.31l-16.93,6.83a5.13,5.13,0,0,0-2.7,2.51L10.46,682a5.12,5.12,0,0,0,7.29,6.59l31.86-19.63a5.14,5.14,0,0,1,1.82-.68l51.26-8.82a5.11,5.11,0,0,1,3.76.82L133,678.5a5.26,5.26,0,0,1,1.41,1.45l15.63,24.23a5.06,5.06,0,0,0,2.83,2.12L185,715.88a5.09,5.09,0,0,1,2.9,2.23l19.28,31.56a5.11,5.11,0,0,0,2.46,2.08l17.07,6.88a5,5,0,0,0,2.51.33l65.93-7.81.6,0h55.16a5.12,5.12,0,0,0,5-4l14.94-67.72a5.54,5.54,0,0,1,.17-.58l18.43-53.07,13-34.05a5.18,5.18,0,0,1,.64-1.18l26.9-37a5.15,5.15,0,0,1,4.91-2L585,574.38a5.12,5.12,0,0,1,4.35,5.06v33.85a5.09,5.09,0,0,0,1.09,3.16l58.15,74.21a5.1,5.1,0,0,0,.76.78l29.38,24.45a5.1,5.1,0,0,1,1.09,1.27l17.52,28.66a5.11,5.11,0,0,0,7.81,1.12l23-21c.12-.1.22-.21.33-.32l31.28-34.13a6,6,0,0,1,.75-.67l42.59-31.2a5.3,5.3,0,0,0,1.19-1.22l29.12-42.11a5.14,5.14,0,0,1,2.18-1.79l54-23.33a4.71,4.71,0,0,0,.45-.22l40.53-22.39a4.79,4.79,0,0,0,.53-.34l31.35-22.74a5.14,5.14,0,0,0,2-2.87l9.16-35.82A5.12,5.12,0,0,0,971.25,501.07Z" transform="translate(-7.92 -5)"/></g></svg>