<svg xmlns="http://www.w3.org/2000/svg" viewBox="0 0 944.35 801.1"><defs><style>.cls-1,.cls-2{fill:none;}.cls-1{stroke:#bbc0c0;stroke-width:4px;opacity:0.8;}.cls-1,.cls-3,.cls-4{isolation:isolate;}.cls-2{stroke:#937e74;stroke-miterlimit:10;stroke-width:3px;}.cls-4{font-size:72.43px;fill:#937e74;font-family:GillSansNova-Medium, Gill Sans Nova;font-weight:500;}</style></defs><g id="Ebene_2" data-name="Ebene 2"><g id="Map"><path id="Map_path" class="cls-1" d="M750.47,738.5l-28.74,31.35a2.13,2.13,0,0,1-.3.3L700.21,789.5a4.72,4.72,0,0,1-7.2-1l-16.12-26.39a4.84,4.84,0,0,0-1-1.16L648.83,738.4a5.15,5.15,0,0,1-.69-.71L594.6,669.37a4.73,4.73,0,0,1-1-2.91V635.29a4.71,4.71,0,0,0-4-4.65L451.37,609.57a4.74,4.74,0,0,0-4.52,1.89l-24.76,34a5.06,5.06,0,0,0-.59,1.1l-12,31.34-17,48.86a4.61,4.61,0,0,0-.15.53l-13.76,62.35a4.72,4.72,0,0,1-4.6,3.7H323.27a5.25,5.25,0,0,0-.56,0L262,800.57a4.59,4.59,0,0,1-2.32-.31L244,793.93a4.74,4.74,0,0,1-2.26-1.91L224,763a4.67,4.67,0,0,0-2.67-2.06l-29.51-8.81a4.71,4.71,0,0,1-2.61-2l-14.39-22.3a4.58,4.58,0,0,0-1.3-1.33L149,709.7a4.71,4.71,0,0,0-3.46-.76l-47.2,8.12a4.77,4.77,0,0,0-1.67.63L67.37,735.76a4.72,4.72,0,0,1-6.72-6.07l17.76-36.62a4.69,4.69,0,0,1,2.48-2.32l15.59-6.28a4.67,4.67,0,0,0,1.73-1.22l60.05-66.54a3.06,3.06,0,0,1,.36-.36l30.19-26.91a4.69,4.69,0,0,0,1.54-2.91l5.77-44.17a4.73,4.73,0,0,0-.05-1.5L174.5,428.6a4.73,4.73,0,0,0-1-2.14l-25.39-30.21a4.91,4.91,0,0,1-.92-1.75L138,362a4.76,4.76,0,0,0-.85-1.66l-24.77-30.89a4.22,4.22,0,0,1-.42-.62l-14-24.64a4.76,4.76,0,0,1-.58-1.75l-4.72-38.08a3.69,3.69,0,0,1,0-.58v-28a4.7,4.7,0,0,0-.53-2.17,4.67,4.67,0,0,1,2.63-6.64,4.51,4.51,0,0,1,4.78,1L110.13,238l26.21,24.76a4.74,4.74,0,0,0,3.24,1.28h25.91a4.74,4.74,0,0,1,2.68.83l20.74,14.3a4.68,4.68,0,0,0,2.68.84h43.08a4.72,4.72,0,0,0,3.1-1.17L274,247.1a5,5,0,0,0,.46-.46L306,210.14a4.7,4.7,0,0,0,1.15-3.08V195a4.71,4.71,0,0,1,3.18-4.46l59.77-20.45a4.75,4.75,0,0,1,3.28.09l52.84,21.29a4.63,4.63,0,0,0,.8.25l81.53,16.91a4.63,4.63,0,0,0,1.89,0l52.47-10.57a4.78,4.78,0,0,0,2.46-1.34l43.86-45.38a3.8,3.8,0,0,1,.47-.43l37.87-29.81a4.72,4.72,0,0,1,2-.92l58.59-11.8a4.68,4.68,0,0,1,2.46.16L773,129.88a4.8,4.8,0,0,1,1.74,1.06l51.9,49.91a4.79,4.79,0,0,1,1.31,2.26L842,239.82a4.62,4.62,0,0,1,.08,1.85l-8.18,53a4.74,4.74,0,0,1-1.07,2.34l-20.54,24.14a4.56,4.56,0,0,0-.83,1.41l-6.93,18.62c-.06.17-.11.34-.16.51l-8.18,32.93a4.8,4.8,0,0,0,0,2.38l15.2,55.34a4.75,4.75,0,0,0,1.2,2.07l37.61,37.88a4.69,4.69,0,0,0,4.19,1.32l30.4-5.57a4.72,4.72,0,0,1,5.39,5.89l-9.5,34.46a4.72,4.72,0,0,0,1.06,4.43l25.78,28.24a4.83,4.83,0,0,0,1.12.89l36.5,21.18a4.73,4.73,0,0,1,2.2,5.25l-8.44,33a4.69,4.69,0,0,1-1.79,2.65l-28.86,20.93a3.66,3.66,0,0,1-.49.31l-37.32,20.62a3.11,3.11,0,0,1-.41.2l-49.75,21.48a4.69,4.69,0,0,0-2,1.65L791.52,708a4.64,4.64,0,0,1-1.09,1.12l-39.21,28.73a4.5,4.5,0,0,0-.69.62Z" transform="translate(-5.21 -1.5)"/></g></g><g id="Ebene_1" data-name="Ebene 1"><g id="Marker1"><g id="marker-map"><path id="Pfad_16" data-name="Pfad 16" class="cls-2" d="M146.83,139.88h0a59.67,59.67,0,0,0-1.3-63,60,60,0,0,0-100.26,0,58.3,58.3,0,0,0-9.63,33.42A63.27,63.27,0,0,0,44,141.17h-.64a.63.63,0,0,0,.61.65h0l50.78,82.26,16-26,34.73-56.29h0Z" transform="translate(-5.21 -1.5)"/></g><g id="_1" data-name=" 1" class="cls-3"><text class="cls-4" transform="translate(72.1 130.83)">1</text></g></g><g id="Marker2"><g id="marker-map-2"><path id="Pfad_16-2" data-name="Pfad 16-2" class="cls-2" d="M863.52,87.57h0a57.23,57.23,0,0,0,7.85-28.38,57.78,57.78,0,0,0-9.06-30.81,56.45,56.45,0,0,0-94.25,0A54.86,54.86,0,0,0,759,59.78a59.63,59.63,0,0,0,7.85,29h-.61a.59.59,0,0,0,.58.6h0l47.73,77.33,47.73-77.33h0Z" transform="translate(-5.21 -1.5)"/></g><g id="_2" data-name=" 2" class="cls-3"><text class="cls-4" transform="translate(791.87 83.91)">2</text></g></g><g id="Marker3"><g id="marker-map-3"><path id="Pfad_16-3" data-name="Pfad 16-3" class="cls-2" d="M843.27,622.35h0A57.21,57.21,0,0,0,851.13,594a57.78,57.78,0,0,0-9.06-30.81,56.45,56.45,0,0,0-94.25,0,54.87,54.87,0,0,0-9.06,31.41,59.53,59.53,0,0,0,7.86,29H746a.59.59,0,0,0,.58.6h0l47.73,77.33,47.73-77.33h0Z" transform="translate(-5.21 -1.5)"/></g><g id="_3" data-name=" 3" class="cls-3"><text class="cls-4" transform="translate(771.63 618.7)">3</text></g></g><g id="Marker4"><g id="marker-map-4"><path id="Pfad_16-4" data-name="Pfad 16-4" class="cls-2" d="M111.24,654.14h0a57.23,57.23,0,0,0,7.85-28.38A57.81,57.81,0,0,0,110,595a56.45,56.45,0,0,0-94.25,0,54.86,54.86,0,0,0-9.06,31.4,59.52,59.52,0,0,0,7.85,29H14a.59.59,0,0,0,.58.6h0L62.3,733.28,110,656h0Z" transform="translate(-5.21 -1.5)"/></g><g id="_4" data-name=" 4" class="cls-3"><text class="cls-4" transform="translate(39.59 650.49)">4</text></g></g></g></svg>