<svg id="Unbenannt-1" xmlns="http://www.w3.org/2000/svg" width="724.03" height="436.776" viewBox="0 0 724.03 436.776">
  <line id="Line_1" data-name="Line 1" y1="102.059" transform="translate(178.991 107.953)" fill="#879f9c" stroke="#fff" stroke-miterlimit="10" stroke-width="2"/>
  <line id="Line_2" data-name="Line 2" y1="76.932" transform="translate(134.941 133.08)" fill="#879f9c" stroke="#fff" stroke-miterlimit="10" stroke-width="2"/>
  <line id="Line_3" data-name="Line 3" y1="89.651" transform="translate(156.966 120.362)" fill="#879f9c" stroke="#fff" stroke-miterlimit="10" stroke-width="2"/>
  <line id="Line_4" data-name="Line 4" y1="89.651" transform="translate(112.916 120.362)" fill="#879f9c" stroke="#fff" stroke-miterlimit="10" stroke-width="2"/>
  <line id="Line_5" data-name="Line 5" y1="107.953" transform="translate(286.324 102.059)" fill="#879f9c" stroke="#fff" stroke-miterlimit="10" stroke-width="2"/>
  <line id="Line_6" data-name="Line 6" y1="115.708" transform="translate(198.534 94.304)" fill="#879f9c" stroke="#fff" stroke-miterlimit="10" stroke-width="2"/>
  <line id="Line_7" data-name="Line 7" y1="115.708" transform="translate(242.584 94.304)" fill="#879f9c" stroke="#fff" stroke-miterlimit="10" stroke-width="2"/>
  <line id="Line_8" data-name="Line 8" y1="96.786" transform="translate(264.609 113.227)" fill="#879f9c" stroke="#fff" stroke-miterlimit="10" stroke-width="2"/>
  <line id="Line_9" data-name="Line 9" y1="134.321" transform="translate(220.559 75.691)" fill="#879f9c" stroke="#fff" stroke-miterlimit="10" stroke-width="2"/>
  <line id="Line_10" data-name="Line 10" y1="192.951" transform="translate(396.448 17.062)" fill="#879f9c" stroke="#fff" stroke-miterlimit="10" stroke-width="2"/>
  <line id="Line_11" data-name="Line 11" y1="130.288" transform="translate(308.349 79.724)" fill="#879f9c" stroke="#fff" stroke-miterlimit="10" stroke-width="2"/>
  <line id="Line_12" data-name="Line 12" y1="166.583" transform="translate(352.399 43.429)" fill="#879f9c" stroke="#fff" stroke-miterlimit="10" stroke-width="2"/>
  <path id="Path_6" data-name="Path 6" d="M0,170.357V-12.125" transform="translate(374.424 39.655)" fill="#879f9c" stroke="#fff" stroke-width="2"/>
  <line id="Line_14" data-name="Line 14" y1="154.795" transform="translate(330.374 55.217)" fill="#879f9c" stroke="#fff" stroke-miterlimit="10" stroke-width="2"/>
  <line id="Line_15" data-name="Line 15" y1="130.288" transform="translate(503.781 79.724)" fill="#879f9c" stroke="#fff" stroke-miterlimit="10" stroke-width="2"/>
  <line id="Line_16" data-name="Line 16" y1="210.012" transform="translate(415.992)" fill="#879f9c" stroke="#fff" stroke-miterlimit="10" stroke-width="2"/>
  <line id="Line_17" data-name="Line 17" y1="148.591" transform="translate(460.042 61.422)" fill="#879f9c" stroke="#fff" stroke-miterlimit="10" stroke-width="2"/>
  <line id="Line_18" data-name="Line 18" y1="134.321" transform="translate(481.756 75.691)" fill="#879f9c" stroke="#fff" stroke-miterlimit="10" stroke-width="2"/>
  <line id="Line_19" data-name="Line 19" y1="182.404" transform="translate(438.017 27.609)" fill="#879f9c" stroke="#fff" stroke-miterlimit="10" stroke-width="2"/>
  <line id="Line_20" data-name="Line 20" y1="38.466" transform="translate(613.906 171.546)" fill="#879f9c" stroke="#fff" stroke-miterlimit="10" stroke-width="2"/>
  <line id="Line_21" data-name="Line 21" y1="111.986" transform="translate(525.806 98.026)" fill="#879f9c" stroke="#fff" stroke-miterlimit="10" stroke-width="2"/>
  <line id="Line_22" data-name="Line 22" y1="74.14" transform="translate(569.856 135.872)" fill="#879f9c" stroke="#fff" stroke-miterlimit="10" stroke-width="2"/>
  <line id="Line_23" data-name="Line 23" y1="50.874" transform="translate(591.881 159.138)" fill="#879f9c" stroke="#fff" stroke-miterlimit="10" stroke-width="2"/>
  <line id="Line_24" data-name="Line 24" y1="89.651" transform="translate(547.831 120.362)" fill="#879f9c" stroke="#fff" stroke-miterlimit="10" stroke-width="2"/>
  <line id="Line_25" data-name="Line 25" y1="20.784" transform="translate(721.238 189.228)" fill="#879f9c" stroke="#fff" stroke-miterlimit="10" stroke-width="2"/>
  <line id="Line_26" data-name="Line 26" y1="57.699" transform="translate(633.449 152.313)" fill="#879f9c" stroke="#fff" stroke-miterlimit="10" stroke-width="2"/>
  <line id="Line_27" data-name="Line 27" y1="50.874" transform="translate(677.189 159.138)" fill="#879f9c" stroke="#fff" stroke-miterlimit="10" stroke-width="2"/>
  <line id="Line_28" data-name="Line 28" y1="36.295" transform="translate(699.214 173.718)" fill="#879f9c" stroke="#fff" stroke-miterlimit="10" stroke-width="2"/>
  <line id="Line_29" data-name="Line 29" y1="41.878" transform="translate(655.474 168.134)" fill="#879f9c" stroke="#fff" stroke-miterlimit="10" stroke-width="2"/>
  <line id="Line_31" data-name="Line 31" y1="32.262" transform="translate(25.127 177.75)" fill="#879f9c" stroke="#fff" stroke-miterlimit="10" stroke-width="2"/>
  <line id="Line_32" data-name="Line 32" y1="60.491" transform="translate(69.177 149.521)" fill="#879f9c" stroke="#fff" stroke-miterlimit="10" stroke-width="2"/>
  <line id="Line_33" data-name="Line 33" y1="72.899" transform="translate(90.892 137.113)" fill="#879f9c" stroke="#fff" stroke-miterlimit="10" stroke-width="2"/>
  <line id="Line_34" data-name="Line 34" y1="44.67" transform="translate(47.152 165.342)" fill="#879f9c" stroke="#fff" stroke-miterlimit="10" stroke-width="2"/>
  <line id="Line_35" data-name="Line 35" y1="19.543" transform="translate(3.102 190.469)" fill="#879f9c" stroke="#fff" stroke-miterlimit="10" stroke-width="2"/>
  <g id="Group_1" data-name="Group 1" transform="translate(0 241.343)">
    <path id="Path_1" data-name="Path 1" d="M120.051,78.6V91.629h-54.6v177.44H53.977V91.939H0V78.91H120.051Z" transform="translate(0 -76.118)" fill="#fff"/>
    <path id="Path_2" data-name="Path 2" d="M51.41,78.6H88.946c29.78,0,45.6,19.233,45.6,49.323,0,25.127-11.478,41.258-31.331,46.532,9.927,5.584,14.89,11.478,24.817,31.021l31.952,63.593H146.334l-28.85-58.32c-12.719-25.437-21.715-31.641-36.6-31.641h-18.3v89.961H51.1V78.6Zm28.85,87.169c25.437,0,42.809-7.445,42.809-37.535,0-27.919-15.2-36.295-36.6-36.295H62.888v73.83Z" transform="translate(107.417 -76.118)" fill="#fff"/>
    <path id="Path_3" data-name="Path 3" d="M165.31,78.2l66.385,191.71H219.6l-22.025-62.973H124.982L104.2,269.91H92.1L157.244,78.2ZM129.946,193.908h63.283l-31.952-93.063Z" transform="translate(193.604 -76.959)" fill="#fff"/>
    <path id="Path_4" data-name="Path 4" d="M271.376,92.38v16.441c-15.2-11.168-32.262-17.372-49.634-17.372-39.086,0-65.144,37.535-65.144,84.377,0,47.462,26.058,83.757,65.144,83.757,17.682,0,34.744-6.2,50.254-18.3v16.751c-15.511,9.927-31.952,15.2-50.254,15.2-48.393,0-77.242-45.911-77.242-96.475,0-57.079,32.262-98.957,77.242-98.957C239.424,77.8,255.865,83.074,271.376,92.38Z" transform="translate(303.754 -77.8)" fill="#fff"/>
    <path id="Path_5" data-name="Path 5" d="M211.278,78.6v91.822L279.524,78.6H294.1l-68.867,93.063,78.793,97.406H288.21l-76.932-94.924v94.924H199.8V78.6Z" transform="translate(420 -76.118)" fill="#fff"/>
  </g>
</svg>
