<svg xmlns="http://www.w3.org/2000/svg" viewBox="0 0 791.55 473.12"><defs><style>.cls-1,.cls-2,.cls-3{fill:#fff;}.cls-2,.cls-3{stroke:#fff;stroke-miterlimit:10;}.cls-3{stroke-width:2px;}</style></defs><g id="Ebene_1" data-name="Ebene 1"><path class="cls-1" d="M131.2,261.72v14.43H71.47V469.76H59.06V276.15H0V261.72Z" transform="translate(0 0)"/><path class="cls-1" d="M173.81,261.72h40.94c32.55,0,49.66,21.14,49.66,54,0,27.51-12.75,45.3-34.23,51,11.08,6,16.45,12.42,27.18,33.89l34.9,69.12h-15.1L245.62,406c-13.76-27.85-23.49-34.56-39.6-34.56H186.23v98.31H173.81ZM205,357c27.85,0,46.64-8.39,46.64-41.27,0-30.54-16.44-39.6-39.93-39.6h-25.5V357Z" transform="translate(0 0)"/><path class="cls-1" d="M392.59,260.05l72.48,209.71H452l-23.82-69.12H349l-23.49,69.12H312.39l71.47-209.71Zm-38.93,126.5h69.13l-34.9-101.67Z" transform="translate(0 0)"/><path class="cls-1" d="M628.81,274.81v18.12c-16.78-12.08-35.23-18.79-54-18.79-42.95,0-71.14,41.27-71.14,92.27,0,52,28.52,91.61,71.14,91.61,19.46,0,37.91-6.71,54.69-19.8v18.46c-17.11,11.07-34.89,16.44-54.69,16.44-53,0-84.22-50-84.22-105.7,0-62.41,35.23-108,84.55-108C593.91,259,612,264.74,628.81,274.81Z" transform="translate(0 0)"/><path class="cls-1" d="M690.22,261.72V362.05l74.49-100.33h15.77L705.32,363.39l86.23,106.37H774.44L690.22,366.08V469.76H677.8v-208Z" transform="translate(0 0)"/></g><g id="Ebene_36" data-name="Ebene 36"><line class="cls-2" x1="193.61" y1="227.16" x2="193.61" y2="116.77"/></g><g id="Ebene_37" data-name="Ebene 37"><line class="cls-2" x1="145.96" y1="227.16" x2="145.96" y2="143.95"/></g><g id="Ebene_38" data-name="Ebene 38"><line class="cls-2" x1="169.79" y1="227.16" x2="169.79" y2="130.19"/></g><g id="Ebene_31" data-name="Ebene 31"><line class="cls-2" x1="312.39" y1="227.16" x2="312.39" y2="110.39"/></g><g id="Ebene_32" data-name="Ebene 32"><line class="cls-2" x1="217.43" y1="227.16" x2="217.43" y2="102.01"/></g><g id="Ebene_33" data-name="Ebene 33"><line class="cls-2" x1="264.74" y1="227.16" x2="264.74" y2="102.01"/></g><g id="Ebene_34" data-name="Ebene 34"><line class="cls-2" x1="241.26" y1="227.16" x2="241.26" y2="81.87"/></g><g id="Ebene_35" data-name="Ebene 35"><line class="cls-2" x1="288.57" y1="227.16" x2="288.57" y2="122.47"/></g><g id="Ebene_24" data-name="Ebene 24"><line class="cls-2" x1="336.22" y1="227.16" x2="336.22" y2="86.24"/></g><g id="Ebene_25" data-name="Ebene 25"><line class="cls-2" x1="383.86" y1="227.16" x2="383.86" y2="46.98"/></g><g id="Ebene_26" data-name="Ebene 26"><line class="cls-2" x1="407.69" y1="227.16" x2="407.69" y2="29.86"/></g><g id="Ebene_27" data-name="Ebene 27"><line class="cls-2" x1="360.04" y1="227.16" x2="360.04" y2="59.73"/></g><g id="Ebene_28" data-name="Ebene 28"><line class="cls-2" x1="502.65" y1="227.16" x2="502.65" y2="81.87"/></g><g id="Ebene_15" data-name="Ebene 15"><line class="cls-2" x1="526.47" y1="227.16" x2="526.47" y2="86.24"/></g><g id="Ebene_16" data-name="Ebene 16"><line class="cls-2" x1="431.18" y1="227.16" x2="431.18"/></g><g id="Ebene_17" data-name="Ebene 17"><line class="cls-2" x1="478.82" y1="227.16" x2="478.82" y2="66.44"/></g><g id="Ebene_18" data-name="Ebene 18"><line class="cls-3" x1="455" y1="227.16" x2="455" y2="29.86"/></g><g id="Ebene_19" data-name="Ebene 19"><line class="cls-3" x1="645.25" y1="227.16" x2="645.25" y2="185.56"/></g><g id="Ebene_20" data-name="Ebene 20"><line class="cls-3" x1="550.29" y1="227.16" x2="550.29" y2="106.03"/></g><g id="Ebene_21" data-name="Ebene 21"><line class="cls-3" x1="597.94" y1="227.16" x2="597.94" y2="146.97"/></g><g id="Ebene_22" data-name="Ebene 22"><line class="cls-3" x1="621.43" y1="227.16" x2="621.43" y2="172.13"/></g><g id="Ebene_7" data-name="Ebene 7"><line class="cls-3" x1="574.12" y1="227.16" x2="574.12" y2="130.19"/></g><g id="Ebene_8" data-name="Ebene 8"><line class="cls-3" x1="764.37" y1="227.16" x2="764.37" y2="204.68"/></g><g id="Ebene_9" data-name="Ebene 9"><line class="cls-3" x1="669.08" y1="227.16" x2="669.08" y2="164.75"/></g><g id="Ebene_10" data-name="Ebene 10"><line class="cls-3" x1="716.72" y1="227.16" x2="716.72" y2="172.13"/></g><g id="Ebene_11" data-name="Ebene 11"><line class="cls-2" x1="740.55" y1="227.16" x2="740.55" y2="187.91"/></g><g id="Ebene_12" data-name="Ebene 12"><line class="cls-3" x1="692.9" y1="227.16" x2="692.9" y2="181.87"/></g><g id="Ebene_13" data-name="Ebene 13"><line class="cls-3" x1="27.18" y1="227.16" x2="27.18" y2="192.27"/></g><g id="Ebene_14" data-name="Ebene 14"><line class="cls-3" x1="122.14" y1="227.16" x2="122.14" y2="130.19"/></g><g id="Ebene_3" data-name="Ebene 3"><line class="cls-3" x1="787.86" y1="227.16" x2="787.86" y2="210.05"/></g><g id="Ebene_4" data-name="Ebene 4"><line class="cls-3" x1="3.36" y1="227.16" x2="3.36" y2="206.02"/></g><g id="Ebene_5" data-name="Ebene 5"><line class="cls-3" x1="51" y1="227.16" x2="51" y2="178.85"/></g><g id="Ebene_6" data-name="Ebene 6"><line class="cls-3" x1="98.31" y1="227.16" x2="98.31" y2="148.31"/></g><g id="Ebene_2" data-name="Ebene 2"><line class="cls-3" x1="74.83" y1="227.16" x2="74.83" y2="161.73"/></g></svg>