<svg id="Ebene_1" data-name="Ebene 1" xmlns="http://www.w3.org/2000/svg" viewBox="0 0 48.33 46.74"><defs><style>.cls-1{fill:#fff;}.cls-1,.cls-2{stroke:#fff;}.cls-2{fill:none;stroke-miterlimit:10;}</style></defs><g id="Group_276" data-name="Group 276"><path id="Path_23" data-name="Path 23" class="cls-1" d="M4.08,23.14"/><line id="Line_10" data-name="Line 10" class="cls-2" x1="26.24" y1="5.67" x2="26.24" y2="40.42"/><line id="Line_11" data-name="Line 11" class="cls-2" x1="36.14" y1="0.96" x2="36.14" y2="45.92"/><line id="Line_12" data-name="Line 12" class="cls-2" x1="31.19" y1="2.01" x2="31.19" y2="44.79"/><path id="Path_6" data-name="Path 6" class="cls-1" d="M28.71,3.67V42.58"/><line id="Line_14" data-name="Line 14" class="cls-2" x1="33.66" x2="33.66" y2="46.74"/><line id="Line_15" data-name="Line 15" class="cls-2" x1="14.07" y1="14.33" x2="14.07" y2="30.5"/><line id="Line_16" data-name="Line 16" class="cls-2" x1="23.76" y1="7.4" x2="23.76" y2="37.96"/><line id="Line_17" data-name="Line 17" class="cls-2" x1="18.81" y1="11.67" x2="18.81" y2="33.79"/><line id="Line_18" data-name="Line 18" class="cls-2" x1="16.54" y1="13.54" x2="16.54" y2="31.62"/><line id="Line_19" data-name="Line 19" class="cls-2" x1="21.28" y1="9.79" x2="21.28" y2="35.83"/><line id="Line_20" data-name="Line 20" class="cls-2" x1="2.77" y1="14.33" x2="2.77" y2="30.5"/><line id="Line_21" data-name="Line 21" class="cls-2" x1="11.59" y1="14" x2="11.59" y2="31.17"/><line id="Line_22" data-name="Line 22" class="cls-2" x1="7.08" y1="14" x2="7.08" y2="31.17"/><line id="Line_23" data-name="Line 23" class="cls-2" x1="4.96" y1="14.42" x2="4.96" y2="30.58"/><line id="Line_24" data-name="Line 24" class="cls-2" x1="9.33" y1="14.25" x2="9.33" y2="30.59"/><line id="Line_25" data-name="Line 25" class="cls-2" x1="0.5" y1="15" x2="0.5" y2="29.83"/><line id="Line_11-2" data-name="Line 11" class="cls-2" x1="40.79" y1="9.79" x2="40.79" y2="35.83"/><line id="Line_11-3" data-name="Line 11" class="cls-2" x1="43.17" y1="12.92" x2="43.17" y2="33.04"/><line id="Line_11-4" data-name="Line 11" class="cls-2" x1="45.63" y1="15.75" x2="45.63" y2="30.08"/><line id="Line_11-5" data-name="Line 11" class="cls-2" x1="47.83" y1="19.94" x2="47.83" y2="25.52"/></g></svg>