<svg id="Ebene_1" data-name="Ebene 1" xmlns="http://www.w3.org/2000/svg" viewBox="0 0 946.08 854.5"><defs><style>.cls-2{fill:none}.cls-3,.cls-4{isolation:isolate}.cls-2{stroke:#937e74;stroke-miterlimit:10;stroke-width:3px}.cls-4{font-size:72.43px;fill:#937e74;font-family:GillSansNova-Medium,Gill Sans Nova;font-weight:500}</style></defs><g id="Map"><path id="Pfad_25" data-name="Pfad 25" d="M59.03 397.63l36.5 21.18a4.57 4.57 0 011.11.9l25.79 28.24a4.71 4.71 0 011.06 4.43l-9.5 34.46a4.71 4.71 0 005.39 5.88l30.39-5.56a4.73 4.73 0 014.2 1.31l37.63 37.88a4.69 4.69 0 011.2 2.08l15.2 55.33a4.61 4.61 0 010 2.39l-8.18 32.93a4.91 4.91 0 01-.15.51l-6.93 18.62a4.68 4.68 0 01-.83 1.41l-20.54 24.14a4.62 4.62 0 00-1.07 2.33l-8.18 53a4.61 4.61 0 00.08 1.85l14.07 56.71a4.67 4.67 0 001.31 2.26l51.9 49.91a4.59 4.59 0 001.74 1.06l62.38 21.37a4.78 4.78 0 002.46.16l58.59-11.81a4.72 4.72 0 002-.91l37.88-29.81a6.29 6.29 0 00.47-.43l43.86-45.38a4.69 4.69 0 012.46-1.35l52.47-10.57a4.76 4.76 0 011.88 0l81.54 16.91a5.65 5.65 0 01.8.24l52.84 21.29a4.63 4.63 0 003.28.09l59.76-20.44a4.72 4.72 0 003.19-4.46v-12.06a4.73 4.73 0 011.15-3.09l31.55-36.49a4 4 0 01.46-.46l36.21-31.77a4.7 4.7 0 013.11-1.17h43.08a4.74 4.74 0 012.68.83l20.74 14.3a4.74 4.74 0 002.68.83h25.91a4.72 4.72 0 013.24 1.29l36.85 34.81a4.71 4.71 0 007.42-5.6h0a4.71 4.71 0 01-.53-2.18v-28a3.86 3.86 0 000-.58l-4.72-38.08a4.9 4.9 0 00-.58-1.74l-14-24.64a4.31 4.31 0 00-.42-.63l-24.77-30.89a4.87 4.87 0 01-.86-1.66l-9.2-32.49a4.7 4.7 0 00-.93-1.75l-25.39-30.22a4.73 4.73 0 01-1-2.14l-21.6-112.29a4.71 4.71 0 010-1.5l5.77-44.17a4.73 4.73 0 011.53-2.91l30.2-26.9a4.17 4.17 0 00.36-.37l60-66.54a4.68 4.68 0 011.74-1.21l15.59-6.28a4.76 4.76 0 002.48-2.32l17.77-36.63a4.71 4.71 0 00-6.71-6.06l-29.33 18.06a4.63 4.63 0 01-1.68.63l-47.19 8.12a4.66 4.66 0 01-3.46-.76l-24.47-16.79a4.81 4.81 0 01-1.29-1.33l-14.39-22.31a4.76 4.76 0 00-2.61-2l-29.51-8.81a4.68 4.68 0 01-2.68-2.06l-17.75-29.05a4.64 4.64 0 00-2.26-1.91l-15.73-6.31a4.84 4.84 0 00-2.32-.31l-60.69 7.2a5.25 5.25 0 01-.56 0h-50.78a4.72 4.72 0 00-4.6 3.7l-13.76 62.41a5.44 5.44 0 01-.15.54l-17 48.86-12 31.34a4.77 4.77 0 01-.59 1.09l-24.76 34a4.71 4.71 0 01-4.52 1.88L414.6 330.14a4.71 4.71 0 01-4-4.66v-31.16a4.71 4.71 0 00-1-2.91l-53.5-68.32a4.34 4.34 0 00-.7-.72l-27.05-22.51a4.47 4.47 0 01-1-1.17l-16.13-26.39a4.71 4.71 0 00-7.19-1l-21.22 19.34q-.16.15-.3.3l-28.8 31.42a5.09 5.09 0 01-.69.62l-39.22 28.71a4.64 4.64 0 00-1.09 1.12l-26.81 38.77a4.74 4.74 0 01-2 1.64l-49.76 21.48-.41.2-37.32 20.6a5 5 0 00-.49.31l-28.86 20.96a4.73 4.73 0 00-1.8 2.64l-8.43 33a4.69 4.69 0 002.2 5.22z" style="isolation:isolate" stroke="#bbc0c0" stroke-width="4" opacity=".8" fill="none"/></g><g id="Marker1"><g id="marker-map"><path id="Pfad_16" data-name="Pfad 16" class="cls-2" d="M130.1 325.93a59.72 59.72 0 00-1.29-63 60.05 60.05 0 00-100.27 0 58.38 58.38 0 00-9.63 33.42 63.38 63.38 0 008.35 30.85h-.64a.63.63 0 00.61.65L78 410.12l16-26 34.74-56.29z" transform="translate(-17.4 -14.5)"/></g><g id="_1" data-name="1" class="cls-3"><text id="marker1-text" class="cls-4" transform="translate(43.18 303.86)">1</text></g></g><g id="Marker2"><g id="marker-map-2"><path id="Pfad_16-2" data-name="Pfad 16-2" class="cls-2" d="M693 100.58a57.17 57.17 0 007.85-28.39 57.64 57.64 0 00-9.06-30.81 56.43 56.43 0 00-94.24 0 54.83 54.83 0 00-9.07 31.41 59.5 59.5 0 007.86 29h-.61a.59.59 0 00.58.61l47.73 77.33 47.73-77.33z" transform="translate(-17.4 -14.5)"/></g><g id="_2" data-name="2" class="cls-3"><text id="marker2-text" class="cls-4" transform="translate(609.19 83.91)">2</text></g></g><g id="Marker3"><g id="marker-map-3"><path id="Pfad_16-3" data-name="Pfad 16-3" class="cls-2" d="M833.69 616.73a57.14 57.14 0 007.85-28.39 57.72 57.72 0 00-9.06-30.81 56.45 56.45 0 00-94.24 0 54.92 54.92 0 00-9.06 31.47 59.49 59.49 0 007.85 29h-.61a.59.59 0 00.58.61l47.73 77.32 47.72-77.33z" transform="translate(-17.4 -14.5)"/></g><g id="_3" data-name="3" class="cls-3"><text id="marker3-text" class="cls-4" transform="translate(749.85 600.08)">3</text></g></g><g id="Marker4"><g id="marker-map-4"><path id="Pfad_16-4" data-name="Pfad 16-4" class="cls-2" d="M310.57 767.89a56.1 56.1 0 00-1.21-59.19 56.43 56.43 0 00-94.24 0 54.79 54.79 0 00-9.06 31.4 59.42 59.42 0 007.85 29h-.61a.58.58 0 00.58.6l47.76 77.3 47.72-77.33z" transform="translate(-17.4 -14.5)"/></g><g id="_4" data-name="4" class="cls-3"><text id="marker4-text" class="cls-4" transform="translate(226.74 751.23)">4</text></g></g></svg>