<svg id="Ebene_1" data-name="Ebene 1" xmlns="http://www.w3.org/2000/svg" viewBox="0 0 946.08 854.5"><defs><style>.cls-1,.cls-2{fill:none;}.cls-1{stroke:#bbc0c0;stroke-width:4px;opacity:0.8;}.cls-1,.cls-3,.cls-4{isolation:isolate;}.cls-2{stroke:#937e74;stroke-miterlimit:10;stroke-width:3px;}.cls-4{font-size:72.43px;fill:#937e74;font-family:GillSansNova-Medium, Gill Sans Nova;font-weight:500;}</style></defs><g id="Map"><path id="Pfad_25" data-name="Pfad 25" class="cls-1" d="M76.43,412.13l36.5,21.18a4.57,4.57,0,0,1,1.11.9l25.79,28.24a4.71,4.71,0,0,1,1.06,4.43l-9.5,34.46a4.71,4.71,0,0,0,5.39,5.88l30.39-5.56a4.73,4.73,0,0,1,4.2,1.31L209,540.85a4.69,4.69,0,0,1,1.2,2.08l15.2,55.33a4.61,4.61,0,0,1,0,2.39l-8.18,32.93a4.91,4.91,0,0,1-.15.51l-6.93,18.62a4.68,4.68,0,0,1-.83,1.41l-20.54,24.14a4.62,4.62,0,0,0-1.07,2.33l-8.18,53a4.61,4.61,0,0,0,.08,1.85l14.07,56.71a4.67,4.67,0,0,0,1.31,2.26l51.9,49.91a4.59,4.59,0,0,0,1.74,1.06L311,866.75a4.78,4.78,0,0,0,2.46.16l58.59-11.81a4.72,4.72,0,0,0,2-.91l37.88-29.81a6.29,6.29,0,0,0,.47-.43l43.86-45.38a4.69,4.69,0,0,1,2.46-1.35l52.47-10.57a4.76,4.76,0,0,1,1.88,0l81.54,16.91a5.65,5.65,0,0,1,.8.24l52.84,21.29a4.63,4.63,0,0,0,3.28.09l59.76-20.44a4.72,4.72,0,0,0,3.19-4.46V768.22a4.73,4.73,0,0,1,1.15-3.09l31.55-36.49a4,4,0,0,1,.46-.46l36.21-31.77a4.7,4.7,0,0,1,3.11-1.17h43.08a4.74,4.74,0,0,1,2.68.83l20.74,14.3a4.74,4.74,0,0,0,2.68.83h25.91a4.72,4.72,0,0,1,3.24,1.29l36.85,34.81a4.71,4.71,0,0,0,7.42-5.6h0a4.71,4.71,0,0,1-.53-2.18v-28a3.86,3.86,0,0,0,0-.58l-4.72-38.08a4.9,4.9,0,0,0-.58-1.74l-14-24.64a4.31,4.31,0,0,0-.42-.63l-24.77-30.89a4.87,4.87,0,0,1-.86-1.66l-9.2-32.49a4.7,4.7,0,0,0-.93-1.75l-25.39-30.22a4.73,4.73,0,0,1-1-2.14L825.56,434.41a4.71,4.71,0,0,1,0-1.5l5.77-44.17a4.73,4.73,0,0,1,1.53-2.91l30.2-26.9a4.17,4.17,0,0,0,.36-.37l60-66.54a4.68,4.68,0,0,1,1.74-1.21l15.59-6.28a4.76,4.76,0,0,0,2.48-2.32L961,245.58a4.71,4.71,0,0,0-6.71-6.06l-29.33,18.06a4.63,4.63,0,0,1-1.68.63l-47.19,8.12a4.66,4.66,0,0,1-3.46-.76l-24.47-16.79a4.81,4.81,0,0,1-1.29-1.33l-14.39-22.31a4.76,4.76,0,0,0-2.61-2l-29.51-8.81a4.68,4.68,0,0,1-2.68-2.06l-17.75-29.05a4.64,4.64,0,0,0-2.26-1.91L761.94,175a4.84,4.84,0,0,0-2.32-.31l-60.69,7.2a5.25,5.25,0,0,1-.56,0H647.59a4.72,4.72,0,0,0-4.6,3.7L629.23,248a5.44,5.44,0,0,1-.15.54l-17,48.86-12,31.34a4.77,4.77,0,0,1-.59,1.09l-24.76,34a4.71,4.71,0,0,1-4.52,1.88L432,344.64a4.71,4.71,0,0,1-4-4.66V308.82a4.71,4.71,0,0,0-1-2.91L373.5,237.59a4.34,4.34,0,0,0-.7-.72l-27.05-22.51a4.47,4.47,0,0,1-1-1.17L328.62,186.8a4.71,4.71,0,0,0-7.19-1l-21.22,19.34q-.16.15-.3.3l-28.8,31.42a5.09,5.09,0,0,1-.69.62L231.2,266.19a4.64,4.64,0,0,0-1.09,1.12L203.3,306.08a4.74,4.74,0,0,1-2,1.64L151.54,329.2l-.41.2L113.81,350a5,5,0,0,0-.49.31L84.46,371.27a4.73,4.73,0,0,0-1.8,2.64l-8.43,33A4.69,4.69,0,0,0,76.43,412.13Z" transform="translate(-17.4 -14.5)"/></g><g id="Marker1"><g id="marker-map"><path id="Pfad_16" data-name="Pfad 16" class="cls-2" d="M130.1,325.93h0a59.72,59.72,0,0,0-1.29-63,60.05,60.05,0,0,0-100.27,0,58.38,58.38,0,0,0-9.63,33.42,63.38,63.38,0,0,0,8.35,30.85h-.64a.63.63,0,0,0,.61.65h0L78,410.12l16-26,34.74-56.29h0Z" transform="translate(-17.4 -14.5)"/></g><g id="_1" data-name=" 1" class="cls-3"><text id="marker1-text" class="cls-4" transform="translate(43.18 303.86)">1</text></g></g><g id="Marker2"><g id="marker-map-2"><path id="Pfad_16-2" data-name="Pfad 16-2" class="cls-2" d="M693,100.58h0a57.17,57.17,0,0,0,7.85-28.39,57.64,57.64,0,0,0-9.06-30.81,56.43,56.43,0,0,0-94.24,0,54.83,54.83,0,0,0-9.07,31.41,59.5,59.5,0,0,0,7.86,29h-.61a.59.59,0,0,0,.58.61h0l47.73,77.33,47.73-77.33h0Z" transform="translate(-17.4 -14.5)"/></g><g id="_2" data-name=" 2" class="cls-3"><text id="marker2-text" class="cls-4" transform="translate(609.19 83.91)">2</text></g></g><g id="Marker3"><g id="marker-map-3"><path id="Pfad_16-3" data-name="Pfad 16-3" class="cls-2" d="M833.69,616.73h0a57.14,57.14,0,0,0,7.85-28.39,57.72,57.72,0,0,0-9.06-30.81,56.45,56.45,0,0,0-94.24,0A54.92,54.92,0,0,0,729.18,589a59.49,59.49,0,0,0,7.85,29h-.61a.59.59,0,0,0,.58.61h0l47.73,77.32,47.72-77.33h0Z" transform="translate(-17.4 -14.5)"/></g><g id="_3" data-name=" 3" class="cls-3"><text id="marker3-text" class="cls-4" transform="translate(749.85 600.08)">3</text></g></g><g id="Marker4"><g id="marker-map-4"><path id="Pfad_16-4" data-name="Pfad 16-4" class="cls-2" d="M310.57,767.89h0a56.1,56.1,0,0,0-1.21-59.19,56.43,56.43,0,0,0-94.24,0,54.79,54.79,0,0,0-9.06,31.4,59.42,59.42,0,0,0,7.85,29h-.61a.58.58,0,0,0,.58.6h0L261.64,847l47.72-77.33h0Z" transform="translate(-17.4 -14.5)"/></g><g id="_4" data-name=" 4" class="cls-3"><text id="marker4-text" class="cls-4" transform="translate(226.74 751.23)">4</text></g></g><path id="gps" d="M78.67,401.65a7.27,7.27,0,1,0,7.27,7.26A7.26,7.26,0,0,0,78.67,401.65Zm16.24,5.44a16.34,16.34,0,0,0-14.42-14.42v-3.74H76.86v3.74a16.33,16.33,0,0,0-14.42,14.42H58.7v3.64h3.74a16.33,16.33,0,0,0,14.42,14.42v3.74h3.63v-3.74a16.34,16.34,0,0,0,14.42-14.42h3.74v-3.64ZM78.67,421.62a12.71,12.71,0,1,1,12.72-12.71A12.7,12.7,0,0,1,78.67,421.62Z" transform="translate(-17.4 -14.5)"/></svg>